<svg width="115" height="115" viewBox="0 0 115 115" fill="none" xmlns="http://www.w3.org/2000/svg">
<rect width="115" height="115" rx="57.5" fill="#C0A8E6"/>
<path d="M65.9173 28.458C63.1921 31.5724 58.9097 34.2976 54.6273 33.9083C53.8487 29.2366 56.1845 24.5648 58.5204 21.8397C61.2456 18.3359 65.9173 16 69.8104 16C70.1997 20.2824 68.6425 24.9542 65.9173 28.458ZM69.8104 34.6869C72.1463 34.6869 79.1539 35.4656 83.8256 42.4732C83.4363 42.8625 75.6501 47.5342 75.6501 57.267C75.6501 68.9463 85.7722 72.8394 85.7722 72.8394C85.7722 73.2288 84.2149 78.2898 80.7111 83.7402C77.5967 88.4119 74.0929 93.0836 69.0318 93.0836C63.9708 93.0836 62.4135 89.9691 56.5739 89.9691C50.7342 89.9691 48.7876 93.0836 44.1159 93.0836C39.0548 93.0836 35.1617 88.0226 32.0472 83.3508C25.429 73.6181 20.3679 56.0991 27.3755 44.4197C30.49 38.58 36.719 34.6869 42.948 34.6869C48.009 34.6869 52.6807 38.1907 55.4059 38.1907C58.1311 38.1907 63.5815 34.2976 69.8104 34.6869Z" fill="#1B1A19"/>
</svg>
