<svg width="115" height="115" viewBox="0 0 115 115" fill="none" xmlns="http://www.w3.org/2000/svg">
<rect x="1" y="1" width="113" height="113" rx="56.5" stroke="#FCF3E4" stroke-width="2"/>
<path fill-rule="evenodd" clip-rule="evenodd" d="M79.3506 31.9163H96.0001V41.6579H79.3506V31.9163Z" fill="#FAC670"/>
<path fill-rule="evenodd" clip-rule="evenodd" d="M79.3506 45.4253H96.0001V55.167H79.3506V45.4253Z" fill="#FAC670"/>
<path fill-rule="evenodd" clip-rule="evenodd" d="M79.3506 58.9299H96.0001V68.6716H79.3506V58.9299Z" fill="#FAC670"/>
<path fill-rule="evenodd" clip-rule="evenodd" d="M19 72.4346H35.6496V82.1762H19V72.4346Z" fill="#FAC670"/>
<path fill-rule="evenodd" clip-rule="evenodd" d="M39.1055 72.4346H55.755V82.1762H39.1055V72.4346Z" fill="#FAC670"/>
<path fill-rule="evenodd" clip-rule="evenodd" d="M59.2446 72.4346H75.8942V82.1762H59.2446V72.4346Z" fill="#FAC670"/>
<path fill-rule="evenodd" clip-rule="evenodd" d="M79.3506 72.4346H96.0001V82.1762H79.3506V72.4346Z" fill="#FAC670"/>
<path fill-rule="evenodd" clip-rule="evenodd" d="M59.2446 58.9299H75.8942V68.6716H59.2446V58.9299Z" fill="#FAC670"/>
<path fill-rule="evenodd" clip-rule="evenodd" d="M39.1055 58.9299H55.755V68.6716H39.1055V58.9299Z" fill="#FAC670"/>
<path fill-rule="evenodd" clip-rule="evenodd" d="M39.1055 45.4253H55.755V55.167H39.1055V45.4253Z" fill="#FAC670"/>
</svg>
