<svg width="1080" height="1080" viewBox="0 0 1080 1080" fill="none" xmlns="http://www.w3.org/2000/svg">
<g clip-path="url(#clip0_617_16)">
<g clip-path="url(#clip1_617_16)">
<path fill-rule="evenodd" clip-rule="evenodd" d="M882.103 548.27C882.103 523.014 879.837 498.73 875.627 475.416H540.175V613.191H731.862C723.605 657.713 698.511 695.435 660.789 720.691V810.059H775.898C843.248 748.052 882.103 656.742 882.103 548.27Z" fill="#4285F4"/>
<path fill-rule="evenodd" clip-rule="evenodd" d="M540.175 896.35C636.342 896.35 716.968 864.456 775.898 810.058L660.789 720.691C628.895 742.061 588.097 754.689 540.175 754.689C447.408 754.689 368.887 692.035 340.879 607.848H221.884V700.13C280.491 816.534 400.943 896.35 540.175 896.35Z" fill="#34A853"/>
<path fill-rule="evenodd" clip-rule="evenodd" d="M340.879 607.849C333.755 586.478 329.708 563.651 329.708 540.175C329.708 516.7 333.755 493.873 340.879 472.502V380.22H221.884C197.761 428.304 184 482.702 184 540.175C184 597.649 197.761 652.047 221.884 700.13L340.879 607.849Z" fill="#FBBC05"/>
<path fill-rule="evenodd" clip-rule="evenodd" d="M540.175 325.661C592.468 325.661 639.418 343.631 676.331 378.925L778.489 276.767C716.806 219.294 636.181 184 540.175 184C400.943 184 280.491 263.816 221.884 380.22L340.879 472.502C368.887 388.315 447.408 325.661 540.175 325.661Z" fill="#EA4335"/>
</g>
<circle cx="540" cy="540" r="535" stroke="#F3F3F3" stroke-width="10"/>
</g>
<defs>
<clipPath id="clip0_617_16">
<rect width="1080" height="1080" fill="white"/>
</clipPath>
<clipPath id="clip1_617_16">
<rect x="184" y="184" width="712.35" height="712.35" rx="6" fill="white"/>
</clipPath>
</defs>
</svg>
