<svg width="1080" height="1080" viewBox="0 0 1080 1080" fill="none" xmlns="http://www.w3.org/2000/svg">
<g clip-path="url(#clip0_618_152)">
<rect width="1080" height="1080" rx="540" fill="#D9D9D9" fill-opacity="0.5"/>
<rect width="1080" height="1080" rx="540" fill="url(#paint0_radial_618_152)"/>
<rect width="1080" height="1080" rx="540" fill="url(#paint1_radial_618_152)"/>
<path d="M421.469 540.175C421.469 474.607 474.607 421.44 540.175 421.44C605.743 421.44 658.91 474.607 658.91 540.175C658.91 605.743 605.743 658.909 540.175 658.909C474.607 658.909 421.469 605.743 421.469 540.175M357.283 540.175C357.283 641.186 439.164 723.067 540.175 723.067C641.186 723.067 723.067 641.186 723.067 540.175C723.067 439.164 641.186 357.283 540.175 357.283C439.164 357.283 357.286 439.158 357.286 540.175M687.569 350.032C687.565 358.485 690.069 366.75 694.762 373.78C699.456 380.811 706.129 386.292 713.938 389.53C721.746 392.768 730.34 393.618 738.631 391.972C746.923 390.326 754.54 386.258 760.52 380.283C766.5 374.308 770.574 366.694 772.226 358.404C773.879 350.114 773.036 341.52 769.804 333.708C766.572 325.897 761.096 319.22 754.07 314.52C747.043 309.821 738.78 307.311 730.327 307.308H730.31C718.979 307.313 708.113 311.815 700.099 319.826C692.085 327.837 687.579 338.701 687.569 350.032M396.28 830.096C361.555 828.514 342.68 822.73 330.137 817.843C313.508 811.369 301.643 803.659 289.169 791.201C276.694 778.744 268.972 766.89 262.527 750.261C257.637 737.724 251.853 718.844 250.274 684.118C248.547 646.574 248.203 635.297 248.203 540.181C248.203 445.065 248.576 433.818 250.274 396.243C251.856 361.518 257.683 342.675 262.527 330.1C269 313.471 276.711 301.606 289.169 289.131C301.626 276.657 313.48 268.935 330.137 262.49C342.675 257.6 361.555 251.816 396.28 250.237C433.824 248.51 445.102 248.166 540.175 248.166C635.248 248.166 646.537 248.533 684.112 250.243C718.838 251.824 737.681 257.651 750.256 262.495C766.885 268.941 778.75 276.68 791.224 289.137C803.699 301.595 811.392 313.477 817.866 330.106C822.756 342.643 828.54 361.523 830.119 396.249C831.845 433.824 832.19 445.071 832.19 540.186C832.19 635.302 831.845 646.549 830.119 684.124C828.537 718.849 822.724 737.724 817.866 750.267C811.392 766.896 803.682 778.761 791.224 791.207C778.767 803.653 766.885 811.375 750.256 817.849C737.718 822.739 718.838 828.523 684.112 830.101C646.569 831.828 635.291 832.173 540.175 832.173C445.059 832.173 433.813 831.828 396.28 830.101M393.331 186.157C355.414 187.884 329.505 193.896 306.878 202.701C283.458 211.793 263.607 223.991 243.783 243.783C223.96 263.575 211.793 283.43 202.701 306.878C193.896 329.519 187.884 355.414 186.157 393.331C184.402 431.308 184 443.449 184 540.175C184 636.901 184.402 649.042 186.157 687.019C187.884 724.939 193.896 750.831 202.701 773.472C211.793 796.892 223.963 816.783 243.783 836.567C263.604 856.35 283.43 868.531 306.878 877.649C329.547 886.454 355.414 892.466 393.331 894.193C431.328 895.92 443.449 896.35 540.175 896.35C636.901 896.35 649.042 895.948 687.019 894.193C724.939 892.466 750.831 886.454 773.472 877.649C796.892 868.531 816.743 856.359 836.567 836.567C856.39 816.775 868.531 796.892 877.649 773.472C886.454 750.831 892.495 724.936 894.193 687.019C895.92 649.014 896.321 636.901 896.321 540.175C896.321 443.449 895.92 431.308 894.193 393.331C892.466 355.411 886.454 329.505 877.649 306.878C868.531 283.458 856.359 263.607 836.567 243.783C816.775 223.96 796.892 211.793 773.501 202.701C750.831 193.896 724.936 187.855 687.047 186.157C649.065 184.422 636.929 184 540.218 184C443.506 184 431.342 184.402 393.345 186.157" fill="white"/>
</g>
<defs>
<radialGradient id="paint0_radial_618_152" cx="0" cy="0" r="1" gradientUnits="userSpaceOnUse" gradientTransform="translate(69.8965 1056.34) scale(1371.2)">
<stop offset="0.09" stop-color="#FA8F21"/>
<stop offset="0.78" stop-color="#D82D7E"/>
</radialGradient>
<radialGradient id="paint1_radial_618_152" cx="0" cy="0" r="1" gradientUnits="userSpaceOnUse" gradientTransform="translate(748.078 1021.66) scale(1206.67)">
<stop offset="0.64" stop-color="#8C3AAA" stop-opacity="0"/>
<stop offset="1" stop-color="#8C3AAA"/>
</radialGradient>
<clipPath id="clip0_618_152">
<rect width="1080" height="1080" fill="white"/>
</clipPath>
</defs>
</svg>
