<svg width="1134" height="1113" viewBox="0 0 1134 1113" fill="none" xmlns="http://www.w3.org/2000/svg">
<g clip-path="url(#clip0_618_43)">
<rect y="33" width="1080" height="1080" rx="540" fill="#0A66C2"/>
<path d="M225 309.044C225 288.774 232.095 272.051 246.284 258.876C260.473 245.7 278.919 239.112 301.622 239.112C323.919 239.112 341.959 245.598 355.743 258.572C369.932 271.95 377.027 289.382 377.027 310.869C377.027 330.328 370.135 346.544 356.351 359.517C342.162 372.896 323.514 379.585 300.405 379.585H299.797C277.5 379.585 259.46 372.896 245.676 359.517C231.892 346.139 225 329.315 225 309.044ZM232.905 841.139V434.923H367.905V841.139H232.905ZM442.703 841.139H577.703V614.315C577.703 600.125 579.325 589.179 582.568 581.477C588.243 567.693 596.858 556.037 608.412 546.511C619.966 536.983 634.459 532.22 651.892 532.22C697.298 532.22 720 562.828 720 624.044V841.139H855V608.234C855 548.233 840.811 502.727 812.432 471.713C784.054 440.7 746.554 425.193 699.932 425.193C647.635 425.193 606.892 447.693 577.703 492.693V493.909H577.095L577.703 492.693V434.923H442.703C443.513 447.896 443.919 488.233 443.919 555.936C443.919 623.639 443.513 718.706 442.703 841.139Z" fill="white"/>
</g>
<defs>
<clipPath id="clip0_618_43">
<rect width="1080" height="1080" fill="white" transform="translate(0 33)"/>
</clipPath>
</defs>
</svg>
