<svg width="115" height="89" viewBox="0 0 115 89" fill="none" xmlns="http://www.w3.org/2000/svg">
<path d="M29 22.3889C29 20.537 29.6194 19.0092 30.8581 17.8056C32.0968 16.6018 33.7072 16 35.6892 16C37.6358 16 39.2107 16.5926 40.4141 17.7778C41.6528 19 42.2722 20.5926 42.2722 22.5556C42.2722 24.3333 41.6705 25.8148 40.4672 27C39.2285 28.2222 37.6004 28.8333 35.583 28.8333H35.5299C33.5833 28.8333 32.0084 28.2222 30.805 27C29.6017 25.7778 29 24.2407 29 22.3889ZM29.6902 71V33.8889H41.4759V71H29.6902ZM48.0058 71H59.7915V50.2778C59.7915 48.9814 59.9331 47.9814 60.2162 47.2778C60.7117 46.0185 61.4638 44.9537 62.4725 44.0833C63.4812 43.2129 64.7464 42.7778 66.2683 42.7778C70.2323 42.7778 72.2143 45.5741 72.2143 51.1667V71H84V49.7222C84 44.2407 82.7613 40.0833 80.2838 37.25C77.8063 34.4167 74.5325 33 70.4624 33C65.8967 33 62.3398 35.0556 59.7915 39.1667V39.2778H59.7384L59.7915 39.1667V33.8889H48.0058C48.0766 35.0741 48.112 38.7592 48.112 44.9444C48.112 51.1296 48.0766 59.8148 48.0058 71Z" fill="black"/>
</svg>
