<svg width="651" height="116" viewBox="0 0 651 116" fill="none" xmlns="http://www.w3.org/2000/svg">
<path d="M104.907 36.55C114.852 36.55 122.54 39.5425 127.973 45.5276C133.497 51.5126 136.26 59.6154 136.26 69.836V115H105.736V73.7033C105.736 70.3885 104.723 67.8103 102.697 65.9688C100.764 64.0351 98.1396 63.0683 94.8248 63.0683C91.4179 63.0683 88.7477 64.0351 86.814 65.9688C84.8804 67.8103 83.9136 70.3885 83.9136 73.7033V115H53.3899V73.7033C53.3899 70.3885 52.3771 67.8103 50.3514 65.9688C48.4178 64.0351 45.7936 63.0683 42.4788 63.0683C39.0719 63.0683 36.4017 64.0351 34.468 65.9688C32.5344 67.8103 31.5676 70.3885 31.5676 73.7033V115H0.905807V37.1025H31.5676V47.5993C33.7774 44.2845 36.77 41.6143 40.5451 39.5886C44.4124 37.5629 48.9242 36.55 54.0805 36.55C59.6972 36.55 64.6694 37.7931 68.9971 40.2792C73.3247 42.6732 76.7776 46.08 79.3558 50.4998C82.2102 46.4484 85.8472 43.1336 90.2669 40.5554C94.6867 37.8852 99.5668 36.55 104.907 36.55ZM145.399 76.0512C145.399 67.8564 146.78 60.7664 149.543 54.7814C152.397 48.7043 156.264 44.1004 161.144 40.9697C166.024 37.747 171.503 36.1357 177.58 36.1357C182.644 36.1357 187.018 37.1946 190.701 39.3124C194.384 41.3381 197.193 44.1464 199.126 47.7374V37.1025H229.65V115H199.126V104.365C197.193 107.956 194.384 110.81 190.701 112.928C187.018 114.954 182.644 115.967 177.58 115.967C171.503 115.967 166.024 114.401 161.144 111.271C156.264 108.048 152.397 103.444 149.543 97.4593C146.78 91.3821 145.399 84.2461 145.399 76.0512ZM199.126 76.0512C199.126 71.9078 198.067 68.6851 195.95 66.3831C193.832 64.0812 191.115 62.9302 187.801 62.9302C184.486 62.9302 181.77 64.0812 179.652 66.3831C177.534 68.6851 176.475 71.9078 176.475 76.0512C176.475 80.1947 177.534 83.4174 179.652 85.7194C181.77 88.0213 184.486 89.1723 187.801 89.1723C191.115 89.1723 193.832 88.0213 195.95 85.7194C198.067 83.4174 199.126 80.1947 199.126 76.0512ZM297.974 36.55C306.906 36.55 313.858 39.5425 318.83 45.5276C323.894 51.5126 326.426 59.6154 326.426 69.836V115H295.902V73.7033C295.902 70.0202 294.89 67.1197 292.864 65.002C290.93 62.7921 288.306 61.6872 284.991 61.6872C281.584 61.6872 278.914 62.7921 276.981 65.002C275.047 67.1197 274.08 70.0202 274.08 73.7033V115H243.418V37.1025H274.08V48.9805C276.474 45.2974 279.651 42.3049 283.61 40.0029C287.662 37.701 292.45 36.55 297.974 36.55ZM355.191 30.8873C349.85 30.8873 345.569 29.4601 342.346 26.6057C339.123 23.7513 337.512 20.1603 337.512 15.8326C337.512 11.4129 339.123 7.77584 342.346 4.92143C345.569 1.97496 349.85 0.501717 355.191 0.501717C360.439 0.501717 364.675 1.97496 367.898 4.92143C371.12 7.77584 372.732 11.4129 372.732 15.8326C372.732 20.1603 371.12 23.7513 367.898 26.6057C364.675 29.4601 360.439 30.8873 355.191 30.8873ZM370.384 37.1025V115H339.722V37.1025H370.384ZM429.12 31.5779C427.462 31.3937 426.311 31.3016 425.667 31.3016C423.365 31.3016 421.615 31.762 420.418 32.6828C419.221 33.5115 418.393 34.9847 417.932 37.1025H429.12V62.654H417.656V115H386.994V62.654H378.707V37.1025H386.994C387.179 26.974 390.355 19.1474 396.524 13.6228C402.786 8.00603 411.533 5.19767 422.766 5.19767C424.056 5.19767 426.173 5.28975 429.12 5.4739V31.5779ZM512.786 75.3607C512.786 77.4785 512.648 79.5042 512.371 81.4378H463.064C463.524 88.1594 466.333 91.5203 471.489 91.5203C474.804 91.5203 477.198 90.001 478.671 86.9624H511.128C510.023 92.4871 507.675 97.4592 504.084 101.879C500.586 106.207 496.12 109.66 490.687 112.238C485.347 114.724 479.454 115.967 473.008 115.967C465.274 115.967 458.368 114.355 452.291 111.133C446.306 107.91 441.61 103.306 438.203 97.3211C434.888 91.244 433.231 84.1541 433.231 76.0512C433.231 67.9484 434.888 60.9045 438.203 54.9195C441.61 48.8424 446.306 44.1925 452.291 40.9697C458.368 37.747 465.274 36.1357 473.008 36.1357C480.743 36.1357 487.603 37.747 493.588 40.9697C499.665 44.1004 504.361 48.6122 507.675 54.5051C511.082 60.3981 512.786 67.3499 512.786 75.3607ZM481.71 68.0405C481.71 65.4623 480.881 63.5287 479.224 62.2396C477.566 60.8585 475.494 60.1679 473.008 60.1679C467.576 60.1679 464.399 62.7921 463.478 68.0405H481.71ZM557.15 115.967C549.784 115.967 543.247 114.77 537.538 112.376C531.921 109.982 527.455 106.667 524.14 102.431C520.826 98.1959 518.938 93.4078 518.478 88.0674H547.896C548.265 90.3693 549.232 92.0727 550.797 93.1776C552.454 94.2826 554.526 94.835 557.012 94.835C558.577 94.835 559.82 94.5128 560.741 93.8682C561.662 93.1316 562.122 92.2569 562.122 91.244C562.122 89.4946 561.156 88.2515 559.222 87.5149C557.288 86.7783 554.02 85.9496 549.416 85.0288C543.799 83.9239 539.149 82.7269 535.466 81.4378C531.875 80.1487 528.698 77.9388 525.936 74.8082C523.266 71.6776 521.931 67.3499 521.931 61.8253C521.931 57.0373 523.174 52.7096 525.66 48.8424C528.238 44.883 532.013 41.7984 536.985 39.5886C541.957 37.2867 547.989 36.1357 555.078 36.1357C565.575 36.1357 573.77 38.7138 579.663 43.8702C585.648 49.0265 589.239 55.7482 590.436 64.0351H563.227C562.767 61.9174 561.8 60.306 560.327 59.2011C558.854 58.0041 556.874 57.4056 554.388 57.4056C552.823 57.4056 551.626 57.7278 550.797 58.3724C549.968 58.9248 549.554 59.7996 549.554 60.9966C549.554 62.5619 550.521 63.7589 552.454 64.5876C554.388 65.3242 557.473 66.1069 561.708 66.9356C567.325 68.0405 572.067 69.2836 575.934 70.6647C579.801 72.0459 583.162 74.4399 586.017 77.8468C588.871 81.1615 590.298 85.7654 590.298 91.6584C590.298 96.2622 588.963 100.406 586.293 104.089C583.622 107.772 579.755 110.672 574.691 112.79C569.719 114.908 563.872 115.967 557.15 115.967ZM650.945 88.896V115H639.343C617.981 115 607.3 104.365 607.3 83.0952V62.654H597.632V37.1025H607.3V18.3187H637.962V37.1025H650.669V62.654H637.962V83.6476C637.962 85.4892 638.376 86.8243 639.205 87.653C640.126 88.4817 641.599 88.896 643.625 88.896H650.945Z" fill="black"/>
</svg>
