<svg width="772" height="115" viewBox="0 0 772 115" fill="none" xmlns="http://www.w3.org/2000/svg">
<path d="M103.208 35.752C113 35.752 120.571 38.6987 125.92 44.592C131.36 50.4853 134.08 58.464 134.08 68.528V113H104.024V72.336C104.024 69.072 103.027 66.5333 101.032 64.72C99.128 62.816 96.544 61.864 93.28 61.864C89.9253 61.864 87.296 62.816 85.392 64.72C83.488 66.5333 82.536 69.072 82.536 72.336V113H52.48V72.336C52.48 69.072 51.4827 66.5333 49.488 64.72C47.584 62.816 45 61.864 41.736 61.864C38.3813 61.864 35.752 62.816 33.848 64.72C31.944 66.5333 30.992 69.072 30.992 72.336V113H0.8V36.296H30.992V46.632C33.168 43.368 36.1147 40.7387 39.832 38.744C43.64 36.7493 48.0827 35.752 53.16 35.752C58.6907 35.752 63.5867 36.976 67.848 39.424C72.1093 41.7813 75.5093 45.136 78.048 49.488C80.8587 45.4987 84.44 42.2347 88.792 39.696C93.144 37.0667 97.9493 35.752 103.208 35.752ZM143.079 74.648C143.079 66.5787 144.439 59.5973 147.159 53.704C149.97 47.72 153.778 43.1867 158.583 40.104C163.389 36.9307 168.783 35.344 174.767 35.344C179.754 35.344 184.061 36.3867 187.687 38.472C191.314 40.4667 194.079 43.232 195.983 46.768V36.296H226.039V113H195.983V102.528C194.079 106.064 191.314 108.875 187.687 110.96C184.061 112.955 179.754 113.952 174.767 113.952C168.783 113.952 163.389 112.411 158.583 109.328C153.778 106.155 149.97 101.621 147.159 95.728C144.439 89.744 143.079 82.7173 143.079 74.648ZM195.983 74.648C195.983 70.568 194.941 67.3947 192.855 65.128C190.77 62.8613 188.095 61.728 184.831 61.728C181.567 61.728 178.893 62.8613 176.807 65.128C174.722 67.3947 173.679 70.568 173.679 74.648C173.679 78.728 174.722 81.9013 176.807 84.168C178.893 86.4347 181.567 87.568 184.831 87.568C188.095 87.568 190.77 86.4347 192.855 84.168C194.941 81.9013 195.983 78.728 195.983 74.648ZM293.317 35.752C302.112 35.752 308.957 38.6987 313.853 44.592C318.84 50.4853 321.333 58.464 321.333 68.528V113H291.277V72.336C291.277 68.7093 290.28 65.8533 288.285 63.768C286.381 61.592 283.797 60.504 280.533 60.504C277.178 60.504 274.549 61.592 272.645 63.768C270.741 65.8533 269.789 68.7093 269.789 72.336V113H239.597V36.296H269.789V47.992C272.146 44.3653 275.274 41.4187 279.173 39.152C283.162 36.8853 287.877 35.752 293.317 35.752ZM349.657 30.176C344.398 30.176 340.182 28.7707 337.009 25.96C333.836 23.1493 332.249 19.6133 332.249 15.352C332.249 11 333.836 7.41866 337.009 4.60799C340.182 1.70666 344.398 0.255992 349.657 0.255992C354.825 0.255992 358.996 1.70666 362.169 4.60799C365.342 7.41866 366.929 11 366.929 15.352C366.929 19.6133 365.342 23.1493 362.169 25.96C358.996 28.7707 354.825 30.176 349.657 30.176ZM364.617 36.296V113H334.425V36.296H364.617ZM422.453 30.856C420.821 30.6747 419.688 30.584 419.053 30.584C416.786 30.584 415.064 31.0373 413.885 31.944C412.706 32.76 411.89 34.2107 411.437 36.296H422.453V61.456H411.165V113H380.973V61.456H372.813V36.296H380.973C381.154 26.3227 384.282 18.616 390.357 13.176C396.522 7.64533 405.136 4.88 416.197 4.88C417.466 4.88 419.552 4.97066 422.453 5.15199V30.856ZM504.837 73.968C504.837 76.0533 504.701 78.048 504.429 79.952H455.877C456.331 86.5707 459.096 89.88 464.173 89.88C467.437 89.88 469.795 88.384 471.245 85.392H503.205C502.117 90.832 499.805 95.728 496.269 100.08C492.824 104.341 488.427 107.741 483.077 110.28C477.819 112.728 472.016 113.952 465.669 113.952C458.053 113.952 451.253 112.365 445.269 109.192C439.376 106.019 434.752 101.485 431.397 95.592C428.133 89.608 426.501 82.6267 426.501 74.648C426.501 66.6693 428.133 59.7333 431.397 53.84C434.752 47.856 439.376 43.2773 445.269 40.104C451.253 36.9307 458.053 35.344 465.669 35.344C473.285 35.344 480.04 36.9307 485.933 40.104C491.917 43.1867 496.541 47.6293 499.805 53.432C503.16 59.2347 504.837 66.08 504.837 73.968ZM474.237 66.76C474.237 64.2213 473.421 62.3173 471.789 61.048C470.157 59.688 468.117 59.008 465.669 59.008C460.32 59.008 457.192 61.592 456.285 66.76H474.237ZM548.522 113.952C541.269 113.952 534.831 112.773 529.21 110.416C523.679 108.059 519.282 104.795 516.018 100.624C512.754 96.4533 510.895 91.7387 510.442 86.48H539.41C539.773 88.7467 540.725 90.424 542.266 91.512C543.898 92.6 545.938 93.144 548.386 93.144C549.927 93.144 551.151 92.8267 552.058 92.192C552.965 91.4667 553.418 90.6053 553.418 89.608C553.418 87.8853 552.466 86.6613 550.562 85.936C548.658 85.2107 545.439 84.3947 540.906 83.488C535.375 82.4 530.797 81.2213 527.17 79.952C523.634 78.6827 520.506 76.5067 517.786 73.424C515.157 70.3413 513.842 66.08 513.842 60.64C513.842 55.9253 515.066 51.664 517.514 47.856C520.053 43.9573 523.77 40.92 528.666 38.744C533.562 36.4773 539.501 35.344 546.482 35.344C556.818 35.344 564.887 37.8827 570.69 42.96C576.583 48.0373 580.119 54.656 581.298 62.816H554.506C554.053 60.7307 553.101 59.144 551.65 58.056C550.199 56.8773 548.25 56.288 545.802 56.288C544.261 56.288 543.082 56.6053 542.266 57.24C541.45 57.784 541.042 58.6453 541.042 59.824C541.042 61.3653 541.994 62.544 543.898 63.36C545.802 64.0853 548.839 64.856 553.01 65.672C558.541 66.76 563.21 67.984 567.018 69.344C570.826 70.704 574.135 73.0613 576.946 76.416C579.757 79.68 581.162 84.2133 581.162 90.016C581.162 94.5493 579.847 98.6293 577.218 102.256C574.589 105.883 570.781 108.739 565.794 110.824C560.898 112.909 555.141 113.952 548.522 113.952ZM640.88 87.296V113H629.456C608.421 113 597.904 102.528 597.904 81.584V61.456H588.384V36.296H597.904V17.8H628.096V36.296H640.608V61.456H628.096V82.128C628.096 83.9413 628.504 85.256 629.32 86.072C630.226 86.888 631.677 87.296 633.672 87.296H640.88ZM667.338 114.088C662.079 114.088 657.863 112.683 654.69 109.872C651.517 107.061 649.93 103.525 649.93 99.264C649.93 94.912 651.517 91.3307 654.69 88.52C657.863 85.6187 662.079 84.168 667.338 84.168C672.506 84.168 676.677 85.6187 679.85 88.52C683.023 91.3307 684.61 94.912 684.61 99.264C684.61 103.525 683.023 107.061 679.85 109.872C676.677 112.683 672.506 114.088 667.338 114.088ZM710.768 114.088C705.509 114.088 701.293 112.683 698.12 109.872C694.946 107.061 693.36 103.525 693.36 99.264C693.36 94.912 694.946 91.3307 698.12 88.52C701.293 85.6187 705.509 84.168 710.768 84.168C715.936 84.168 720.106 85.6187 723.28 88.52C726.453 91.3307 728.04 94.912 728.04 99.264C728.04 103.525 726.453 107.061 723.28 109.872C720.106 112.683 715.936 114.088 710.768 114.088ZM754.198 114.088C748.939 114.088 744.723 112.683 741.55 109.872C738.376 107.061 736.79 103.525 736.79 99.264C736.79 94.912 738.376 91.3307 741.55 88.52C744.723 85.6187 748.939 84.168 754.198 84.168C759.366 84.168 763.536 85.6187 766.71 88.52C769.883 91.3307 771.47 94.912 771.47 99.264C771.47 103.525 769.883 107.061 766.71 109.872C763.536 112.683 759.366 114.088 754.198 114.088Z" fill="black"/>
</svg>
