<svg width="1080" height="1080" viewBox="0 0 1080 1080" fill="none" xmlns="http://www.w3.org/2000/svg">
<g clip-path="url(#clip0_618_155)">
<g clip-path="url(#clip1_618_155)">
<circle cx="540" cy="540" r="540" fill="white"/>
<path d="M539.778 0C241.234 0 0 241.678 0 539.778C0 768.572 142.164 964.048 342.97 1042.68C338.083 1000.03 334.085 934.282 344.747 887.635C354.521 845.429 407.832 619.301 407.832 619.301C407.832 619.301 391.839 586.87 391.839 539.334C391.839 464.253 435.376 408.277 489.576 408.277C535.779 408.277 557.993 442.929 557.993 484.245C557.993 530.449 528.671 599.753 513.122 664.171C500.239 717.927 540.222 761.909 593.09 761.909C689.05 761.909 762.798 660.617 762.798 514.9C762.798 385.619 669.947 295.434 537.112 295.434C383.398 295.434 293.212 410.497 293.212 529.56C293.212 575.763 310.983 625.52 333.196 652.62C337.639 657.951 338.083 662.838 336.75 668.169C332.752 685.052 323.422 721.925 321.646 729.477C319.424 739.251 313.648 741.473 303.43 736.586C236.791 704.598 195.031 605.973 195.031 526.894C195.031 356.742 318.535 200.362 551.773 200.362C738.807 200.362 884.525 333.64 884.525 512.233C884.525 698.379 767.24 848.096 604.64 848.096C549.995 848.096 498.461 819.663 481.136 785.899C481.136 785.899 454.035 888.967 447.372 914.29C435.376 961.383 402.501 1020.02 380.287 1056.01C430.934 1071.56 484.245 1080 540.222 1080C838.322 1080 1080 838.322 1080 540.222C1079.56 241.678 837.877 0 539.778 0Z" fill="#BD081C"/>
</g>
</g>
<defs>
<clipPath id="clip0_618_155">
<rect width="1080" height="1080" fill="white"/>
</clipPath>
<clipPath id="clip1_618_155">
<rect width="1080" height="1080" rx="6" fill="white"/>
</clipPath>
</defs>
</svg>
