<svg width="115" height="115" viewBox="0 0 115 115" fill="none" xmlns="http://www.w3.org/2000/svg">
<rect width="115" height="115" rx="57.5" fill="#49A3A7"/>
<path d="M73.2605 56.3679C72.6373 56.7833 71.7026 57.0949 70.5602 57.0949C68.7947 57.0949 67.1329 56.8872 65.4712 56.3679C65.0558 56.2641 64.7442 56.1602 64.5365 56.1602C64.225 56.1602 64.1211 56.3679 64.1211 56.7833V57.8219C64.1211 58.1335 64.225 58.3412 64.3288 58.5489C64.4327 58.6528 64.6404 58.8605 64.9519 58.9643C66.6137 59.6913 68.4831 60.0029 70.5602 60.0029C72.7412 60.0029 74.4029 59.4836 75.7531 58.4451C77.1032 57.4065 77.7263 56.0564 77.7263 54.2908C77.7263 53.0445 77.4148 52.1098 76.7916 51.2789C76.1685 50.5519 75.1299 49.8249 73.6759 49.3057L70.7679 48.1632C69.6255 47.7478 68.7947 47.3324 68.4831 46.917C68.0677 46.5015 67.8599 46.0861 67.8599 45.3591C67.8599 43.8012 69.0024 42.9704 71.3911 42.9704C72.7412 42.9704 74.0913 43.1781 75.3376 43.5935C75.7531 43.6974 76.0646 43.8012 76.1685 43.8012C76.4801 43.8012 76.6878 43.5935 76.6878 43.1781V42.1395C76.6878 41.828 76.5839 41.6203 76.4801 41.4125C76.3762 41.2048 76.1685 41.101 75.8569 40.9971C74.2991 40.4778 72.7412 40.1663 71.1834 40.1663C69.2101 40.1663 67.5484 40.6855 66.3021 41.6203C65.0558 42.555 64.4327 43.9051 64.4327 45.463C64.4327 47.8517 65.7828 49.6172 68.4831 50.6558L71.5988 51.7982C72.6374 52.2136 73.2605 52.5252 73.6759 52.9406C74.0913 53.3561 74.1952 53.7715 74.1952 54.3946C74.1952 55.2255 73.8836 55.9525 73.2605 56.3679V56.3679Z" fill="#FAC670"/>
<path d="M56.955 41.4125V55.2255C55.1894 56.3679 53.4238 56.9911 51.6583 56.9911C50.5158 56.9911 49.685 56.6795 49.1657 56.0564C48.6464 55.4332 48.4387 54.4985 48.4387 53.1484V41.4125C48.4387 40.8933 48.231 40.6855 47.7117 40.6855H45.5307C45.0114 40.6855 44.8037 40.8933 44.8037 41.4125V54.2908C44.8037 56.0564 45.2191 57.5103 46.1538 58.4451C47.0886 59.3798 48.4387 59.8991 50.2043 59.8991C52.593 59.8991 54.9817 59.0682 57.2665 57.4065L57.4742 58.6528C57.4742 58.9643 57.5781 59.0682 57.7858 59.1721C57.8897 59.2759 58.0974 59.2759 58.409 59.2759H59.9668C60.4861 59.2759 60.6938 59.0682 60.6938 58.5489V41.4125C60.6938 40.8933 60.4861 40.6855 59.9668 40.6855H57.7858C57.1627 40.6855 56.955 40.9971 56.955 41.4125V41.4125Z" fill="#FAC670"/>
<path d="M37.222 59.3798H39.403C39.9222 59.3798 40.13 59.1721 40.13 58.6528V45.6707C40.13 43.9051 39.7145 42.555 38.7798 41.6203C37.8451 40.6855 36.5988 40.1663 34.8333 40.1663C32.4446 40.1663 29.952 40.9971 27.5633 42.7627C26.7324 40.9971 25.1746 40.1663 22.8897 40.1663C20.6049 40.1663 18.32 40.9971 16.0352 42.555L15.8275 41.4125C15.8275 41.101 15.7236 40.9971 15.5159 40.8933C15.412 40.7894 15.2043 40.7894 14.9966 40.7894H13.3349C12.8156 40.7894 12.6079 40.9971 12.6079 41.5164V58.7566C12.6079 59.2759 12.8156 59.4836 13.3349 59.4836H15.5159C16.0352 59.4836 16.2429 59.2759 16.2429 58.7566V44.736C18.0085 43.6974 19.774 43.0742 21.6435 43.0742C22.682 43.0742 23.409 43.3858 23.8244 44.009C24.2399 44.6321 24.5514 45.463 24.5514 46.7092V58.6528C24.5514 59.1721 24.7592 59.3798 25.2784 59.3798H27.4594C27.9787 59.3798 28.1864 59.1721 28.1864 58.6528V44.736C30.0559 43.5935 31.8214 43.0742 33.587 43.0742C34.6255 43.0742 35.3525 43.3858 35.768 44.009C36.1834 44.6321 36.495 45.463 36.495 46.7092V58.6528C36.495 59.1721 36.7027 59.3798 37.222 59.3798V59.3798Z" fill="#FAC670"/>
<path d="M93.8243 73.1926C82.5039 77.97 70.145 80.3587 58.9284 80.3587C42.3113 80.3587 26.2135 75.789 13.2314 68.2075C13.0237 68.1036 12.816 67.9998 12.6083 67.9998C11.8813 67.9998 11.4659 68.8306 12.1929 69.5576C24.2403 80.4626 40.2342 87.0055 57.8899 87.0055C70.5604 87.0055 85.2042 83.059 95.2783 75.5813C97.0439 74.335 95.5899 72.4656 93.8243 73.1926Z" fill="#FAC670"/>
<path d="M93.5127 44.8397C94.4474 43.8012 95.9014 43.2819 97.9785 43.2819C99.0171 43.2819 100.056 43.3857 100.99 43.6973C101.302 43.8012 101.406 43.8012 101.613 43.8012C101.925 43.8012 102.133 43.5934 102.133 43.0742V42.0356C102.133 41.724 102.029 41.4124 101.925 41.3086C101.821 41.2047 101.613 40.997 101.406 40.8932C100.056 40.5816 98.7055 40.27 97.4592 40.27C94.5512 40.27 92.3702 41.1009 90.7085 42.8664C89.1507 44.5281 88.3198 47.0207 88.3198 50.1364C88.3198 53.2521 89.0468 55.6408 90.6047 57.3025C92.1625 58.9642 94.3435 59.7951 97.2515 59.7951C98.8094 59.7951 100.263 59.5874 101.406 59.0681C101.717 58.9642 101.925 58.8604 102.029 58.6527C102.133 58.5488 102.133 58.2372 102.133 57.9257V56.8871C102.133 56.3678 101.925 56.1601 101.613 56.1601C101.51 56.1601 101.302 56.1601 101.094 56.264C99.9518 56.5755 98.8094 56.7833 97.7708 56.7833C95.7975 56.7833 94.3435 56.264 93.4088 55.2254C92.4741 54.1868 92.0587 52.5251 92.0587 50.3441V49.8248C92.1625 47.54 92.578 45.8783 93.5127 44.8397V44.8397Z" fill="#FAC670"/>
<path d="M98.1863 82.9551C103.587 78.3854 105.041 68.9344 103.898 67.4804C103.379 66.8573 100.887 66.2341 97.7709 66.2341C94.4475 66.2341 90.5009 66.9611 87.4891 69.0383C86.5544 69.6614 86.7621 70.4923 87.6968 70.3884C90.9163 69.973 98.1863 69.1421 99.5364 70.8038C100.783 72.4655 98.0825 79.3201 96.8362 82.3319C96.5246 83.2666 97.2516 83.5782 98.1863 82.9551Z" fill="#FAC670"/>
<path d="M83.7503 40.6855H81.5693C81.05 40.6855 80.8423 40.8933 80.8423 41.4125V58.6528C80.8423 59.1721 81.05 59.3798 81.5693 59.3798H83.7503C84.2696 59.3798 84.4773 59.1721 84.4773 58.6528V41.4125C84.4773 40.9971 84.2696 40.6855 83.7503 40.6855V40.6855Z" fill="#FAC670"/>
<path d="M84.3737 33.6231C83.9582 33.2077 83.3351 33 82.6081 33C81.8811 33 81.3618 33.2077 80.9464 33.6231C80.531 34.0386 80.3232 34.5579 80.3232 35.181C80.3232 35.8041 80.531 36.4273 80.9464 36.7388C81.3618 37.1543 81.8811 37.362 82.6081 37.362C83.3351 37.362 83.8544 37.1543 84.2698 36.7388C84.6852 36.3234 84.8929 35.8041 84.8929 35.181C84.8929 34.5579 84.7891 33.9347 84.3737 33.6231V33.6231Z" fill="#FAC670"/>
</svg>
