<svg width="115" height="115" viewBox="0 0 115 115" fill="none" xmlns="http://www.w3.org/2000/svg">
<path d="M57.4939 1.00106H57.5C88.5749 1.00106 114 26.2386 114 57.5005C114 88.5751 88.7622 114 57.5 114C26.4251 114 1 88.7625 1 57.5005C1 26.2331 26.4293 0.812771 57.4939 1.00106Z" stroke="#F5E1BE" stroke-width="2"/>
<path d="M47.4734 79.3603C41.369 79.3603 35.373 77.3602 30.6243 73.4665C24.9149 68.6145 21.5219 62.059 21.0416 54.9255C20.6542 47.9822 22.9783 41.3279 27.82 36.1032C33.2427 30.3006 42.8331 21.1823 43.3134 20.7944C45.9241 18.3228 50.0918 18.4217 52.6095 20.9846C55.1272 23.5474 55.0265 27.6389 52.4159 30.1105C52.3151 30.2094 42.6317 39.2365 37.5964 44.7501C35.1794 47.313 34.0174 50.6439 34.2033 54.0662C34.3969 57.6785 36.2407 61.1008 39.2387 63.6713C43.2127 67.0935 51.0524 67.7627 55.9949 63.4811C58.8999 60.9183 62.4789 57.1158 62.4789 57.1158C64.8959 54.454 69.0636 54.3628 71.775 56.7355C74.4863 59.1083 74.5793 63.1998 72.1623 65.8615C71.9686 66.0516 68.1882 70.1355 64.7022 73.0862C60.0541 77.269 53.756 79.3603 47.4657 79.3603H47.4734ZM87.1677 78.8888C81.745 84.6914 72.0616 93.8098 71.6742 94.1976C70.4193 95.3384 68.7692 96 67.1192 96C65.3762 96 63.6331 95.3384 62.3782 93.9999C59.8605 91.437 59.9612 87.3455 62.5718 84.8739C62.6725 84.7751 72.356 75.748 77.3836 70.2344C79.8006 67.6715 80.9703 64.3405 80.7767 60.9183C80.583 57.3059 78.7393 53.8837 75.7413 51.3132C71.7672 47.9822 63.9275 47.2217 58.9851 51.5033C56.0801 54.0662 52.5011 57.8687 52.5011 57.8687C50.0841 60.5304 45.9163 60.6217 43.205 58.2489C40.4936 55.8762 40.4007 51.7847 42.8177 49.123C43.0113 48.9328 46.7917 44.849 50.27 41.8982C59.5661 33.7229 74.9589 33.5328 84.3557 41.518C90.065 46.37 93.4581 52.9254 93.9384 60.0589C94.4264 67.0935 92.0017 73.7479 87.16 78.8812" fill="#C0A8E6"/>
</svg>
