<svg width="1080" height="1080" viewBox="0 0 1080 1080" fill="none" xmlns="http://www.w3.org/2000/svg">
<g clip-path="url(#clip0_620_119)">
<circle cx="540" cy="540" r="540" fill="#FFFC00"/>
<path d="M821.62 712.509C716.173 661.465 699.367 582.654 698.619 576.808C697.714 569.727 696.688 564.16 704.499 556.958C712.033 549.999 745.453 529.313 754.726 522.841C770.054 512.124 776.804 501.425 771.828 488.272C768.349 479.173 759.876 475.746 750.951 475.746C748.136 475.754 745.33 476.069 742.583 476.685C725.742 480.339 709.388 488.776 699.924 491.056C698.787 491.349 697.619 491.506 696.444 491.525C691.399 491.525 689.485 489.281 689.973 483.209C691.156 464.803 693.661 428.877 690.755 395.317C686.771 349.144 671.879 326.266 654.22 306.032C645.678 296.22 606.012 254.066 529.463 254.066C452.913 254.066 413.299 296.22 404.809 305.911C387.098 326.144 372.223 349.022 368.274 395.195C365.369 428.755 367.978 464.663 369.057 483.087C369.405 488.863 367.63 491.403 362.585 491.403C361.411 491.383 360.243 491.226 359.106 490.934C349.659 488.655 333.305 480.217 316.464 476.563C313.717 475.948 310.911 475.633 308.096 475.624C299.136 475.624 290.698 479.103 287.219 488.15C282.243 501.303 288.959 512.002 304.338 522.719C313.611 529.191 347.032 549.859 354.565 556.836C362.359 564.038 361.35 569.606 360.445 576.686C359.697 582.619 342.874 661.43 237.444 712.387C231.268 715.38 220.76 721.712 239.288 731.942C268.377 748.018 287.741 746.295 302.79 755.986C315.559 764.215 308.009 781.96 317.299 788.363C328.712 796.244 362.446 787.806 406.027 802.194C442.562 814.233 464.761 848.245 529.55 848.245C594.338 848.245 617.181 814.076 653.072 802.194C696.566 787.806 730.37 796.244 741.8 788.363C751.073 781.96 743.54 764.215 756.309 755.986C771.358 746.295 790.704 748.018 819.811 731.942C838.304 721.834 827.796 715.502 821.62 712.509Z" fill="white"/>
<path d="M867.496 706.507C862.764 693.632 853.752 686.743 843.488 681.037C841.557 679.906 839.782 679.001 838.268 678.305C835.206 676.722 832.075 675.191 828.961 673.573C796.967 656.61 771.984 635.211 754.656 609.846C749.735 602.705 745.467 595.135 741.903 587.229C740.425 583.001 740.494 580.6 741.555 578.408C742.608 576.72 744 575.268 745.644 574.146C751.141 570.51 756.813 566.822 760.658 564.334C767.513 559.897 772.941 556.383 776.437 553.895C789.573 544.709 798.759 534.949 804.5 524.041C808.505 516.505 810.841 508.194 811.349 499.674C811.856 491.154 810.523 482.625 807.44 474.667C798.741 451.772 777.116 437.558 750.915 437.558C745.389 437.553 739.878 438.136 734.475 439.298C733.031 439.611 731.587 439.941 730.177 440.307C730.421 424.649 730.073 408.121 728.681 391.854C723.74 334.669 703.716 304.693 682.839 280.788C669.47 265.809 653.722 253.136 636.231 243.279C604.55 225.186 568.624 216 529.462 216C490.3 216 454.548 225.186 422.832 243.279C405.298 253.139 389.519 265.837 376.137 280.858C355.26 304.762 335.236 334.79 330.295 391.924C328.903 408.191 328.555 424.805 328.781 440.376C327.372 440.011 325.945 439.68 324.501 439.367C319.099 438.205 313.587 437.622 308.061 437.627C281.843 437.627 260.183 451.841 251.519 474.736C248.422 482.698 247.075 491.234 247.571 499.762C248.066 508.291 250.392 516.613 254.389 524.163C260.148 535.071 269.334 544.831 282.469 554.017C285.948 556.453 291.394 559.967 298.249 564.456C301.954 566.856 307.365 570.371 312.671 573.885C314.528 575.085 316.106 576.669 317.299 578.53C318.412 580.809 318.447 583.262 316.794 587.786C313.279 595.526 309.081 602.937 304.251 609.933C287.305 634.724 263.053 655.74 232.086 672.564C215.68 681.263 198.63 687.073 191.428 706.646C186 721.416 189.549 738.222 203.345 752.384C208.408 757.67 214.281 762.115 220.742 765.554C234.187 772.942 248.483 778.662 263.314 782.586C266.375 783.375 269.28 784.675 271.909 786.431C276.937 790.833 276.223 797.461 282.921 807.169C286.284 812.186 290.556 816.529 295.517 819.973C309.574 829.681 325.371 830.29 342.108 830.934C357.226 831.508 374.363 832.169 393.935 838.624C402.042 841.303 410.463 846.487 420.223 852.542C443.657 866.947 475.738 886.658 529.427 886.658C583.116 886.658 615.423 866.842 639.032 852.385C648.722 846.435 657.09 841.303 664.971 838.693C684.544 832.221 701.68 831.578 716.799 831.003C733.535 830.36 749.332 829.751 763.389 820.043C769.265 815.946 774.161 810.599 777.725 804.385C782.544 796.191 782.422 790.467 786.946 786.466C789.411 784.794 792.14 783.547 795.018 782.777C810.051 778.841 824.542 773.068 838.164 765.589C845.029 761.906 851.208 757.068 856.431 751.288L856.605 751.079C869.549 737.231 872.802 720.912 867.496 706.507ZM819.775 732.151C790.669 748.226 771.323 746.504 756.274 756.194C743.487 764.423 751.054 782.168 741.764 788.571C730.351 796.452 696.618 788.014 653.037 802.402C617.093 814.284 594.163 848.453 529.514 848.453C464.865 848.453 442.474 814.354 405.939 802.315C362.445 787.927 328.642 796.365 317.212 788.484C307.939 782.082 315.472 764.336 302.702 756.107C287.636 746.417 268.29 748.139 239.201 732.151C220.673 721.921 231.181 715.588 237.357 712.596C342.786 661.551 359.61 582.74 360.358 576.895C361.262 569.814 362.272 564.247 354.477 557.044C346.944 550.085 313.524 529.4 304.251 522.928C288.906 512.211 282.156 501.511 287.132 488.359C290.611 479.26 299.101 475.832 308.009 475.832C310.824 475.841 313.63 476.156 316.377 476.772C333.218 480.425 349.571 488.863 359.018 491.142C360.156 491.434 361.323 491.592 362.498 491.612C367.543 491.612 369.318 489.072 368.97 483.296C367.891 464.872 365.281 428.963 368.187 395.404C372.171 349.23 387.046 326.353 404.722 306.119C413.212 296.394 453.104 254.24 529.392 254.24C605.681 254.24 645.678 296.22 654.168 305.911C671.861 326.144 686.753 349.022 690.702 395.195C693.608 428.755 691.103 464.681 689.92 483.087C689.519 489.159 691.346 491.403 696.391 491.403C697.566 491.384 698.734 491.227 699.871 490.934C709.335 488.654 725.689 480.217 742.53 476.563C745.277 475.947 748.083 475.632 750.898 475.624C759.858 475.624 768.295 479.103 771.775 488.15C776.751 501.302 770.035 512.002 754.673 522.719C745.4 529.191 711.98 549.859 704.446 556.835C696.635 564.038 697.661 569.605 698.566 576.686C699.314 582.619 716.12 661.43 821.567 712.387C827.795 715.501 838.303 721.834 819.775 732.151Z" fill="black"/>
</g>
<defs>
<clipPath id="clip0_620_119">
<rect width="1080" height="1080" rx="50" fill="white"/>
</clipPath>
</defs>
</svg>
