<svg width="115" height="115" viewBox="0 0 115 115" fill="none" xmlns="http://www.w3.org/2000/svg">
<rect width="115" height="115" rx="57.5" fill="#F5E1BE"/>
<path d="M61.1687 38.2192C60.315 38.549 60.0889 38.8905 60.0801 39.5472V75.4566C60.0976 76.1483 60.626 76.7261 61.3016 76.7932C61.3308 76.7947 92.458 76.8108 92.6623 76.8108C98.9111 76.8108 103.975 71.747 103.975 65.4967C103.975 59.2465 98.9111 54.1841 92.6623 54.1841C91.1602 54.1834 89.673 54.4815 88.2872 55.0612C87.3868 44.8664 78.8382 36.8679 68.4071 36.8679C65.9322 36.8718 63.479 37.3308 61.1701 38.2221L61.1687 38.2192ZM56.5237 40.7613L56.013 66.2468L56.5237 75.4959C56.5413 76.1716 57.0929 76.7276 57.77 76.7276C58.0988 76.7249 58.4135 76.5933 58.6463 76.3611C58.8791 76.1288 59.0114 75.8145 59.0148 75.4857V75.4945L59.5694 66.2454L59.0148 40.7569C58.9973 40.0754 58.4457 39.5166 57.77 39.5166C57.0943 39.5166 56.5296 40.0769 56.5237 40.7613ZM52.7397 42.8773L52.302 66.2366C52.302 66.2512 52.7397 75.6287 52.7397 75.6287C52.7572 76.2636 53.2739 76.786 53.9072 76.786C54.2149 76.7827 54.5091 76.6594 54.7274 76.4425C54.9457 76.2256 55.0709 75.9321 55.0762 75.6244V75.6302V75.6244L55.5679 66.2454L55.0762 42.8758C55.0587 42.2366 54.5405 41.7157 53.9087 41.7157C53.6012 41.7194 53.3074 41.8429 53.0894 42.0598C52.8714 42.2766 52.7466 42.5699 52.7413 42.8773H52.7397ZM41.4257 45.326L40.8464 66.2381L41.4272 75.8404C41.4418 76.3541 41.8649 76.7598 42.3581 76.7598C42.8514 76.7598 43.2732 76.3512 43.2893 75.836V75.8316L43.9416 66.2366L43.2893 45.3246C43.2717 44.8036 42.863 44.3979 42.3581 44.3979C41.8532 44.3979 41.4389 44.8036 41.4243 45.3246L41.4257 45.326ZM45.1659 45.8602L44.6347 66.2395L45.1674 75.7469C45.1849 76.3059 45.6227 76.7481 46.1787 76.7481C46.7347 76.7481 47.171 76.3045 47.1885 75.7412V75.7469L47.7723 66.2381L47.1885 45.8587C47.171 45.2939 46.7303 44.8517 46.1787 44.8517C45.627 44.8517 45.1791 45.2954 45.1659 45.8587V45.8602ZM37.7131 46.0046L37.0857 66.2351L37.7131 75.8958C37.7181 76.1196 37.8099 76.3327 37.9693 76.4899C38.1287 76.6471 38.3431 76.736 38.567 76.7378C39.0266 76.7378 39.4016 76.3686 39.4206 75.8914L40.1269 66.2351L39.4206 46.0031C39.4016 45.5289 39.0266 45.1568 38.567 45.1568C38.3424 45.1587 38.1274 45.2482 37.9679 45.4063C37.8084 45.5644 37.7169 45.7786 37.7131 46.0031V46.0046ZM48.9382 46.6044L48.4508 66.2381L48.9382 75.6871C48.9557 76.2898 49.4301 76.7641 50.0284 76.7641C50.6268 76.7641 51.1025 76.2898 51.1156 75.6813V75.6886L51.6613 66.2395L51.1156 46.6029C51.1129 46.3157 50.9975 46.041 50.7941 45.8382C50.5907 45.6353 50.3157 45.5206 50.0284 45.5187C49.4447 45.5187 48.9484 45.9959 48.9382 46.6044ZM34.0299 47.5588C34.0299 47.5603 33.3585 66.2307 33.3585 66.2307L34.0299 75.9906C34.0359 76.1933 34.1197 76.3859 34.264 76.5284C34.4083 76.6708 34.6021 76.752 34.8048 76.7553C35.2178 76.7553 35.5577 76.4197 35.5781 75.9877L36.337 66.2307L35.5781 47.5588C35.5563 47.1283 35.2164 46.7912 34.8048 46.7912C34.6016 46.7945 34.4075 46.8762 34.2631 47.0192C34.1187 47.1623 34.0352 47.3556 34.0299 47.5588ZM30.3772 51.032L29.6577 66.2307L30.3772 76.0519C30.3962 76.4357 30.7012 76.7378 31.0734 76.7378C31.2553 76.7335 31.4287 76.66 31.5583 76.5323C31.6879 76.4046 31.7638 76.2323 31.7708 76.0505V76.0534L32.5852 66.2322L31.7708 51.0334C31.7474 50.6482 31.4411 50.3447 31.0734 50.3447C30.7056 50.3447 30.3962 50.6482 30.3772 51.0334V51.032ZM23.1594 56.1586L22.3481 66.2278L23.1594 75.9687C23.1827 76.2708 23.4134 76.497 23.6995 76.497C23.9855 76.497 24.2131 76.2708 24.2394 75.9687L25.1588 66.2278L24.2394 56.1556C24.2131 55.8565 23.9826 55.6274 23.6995 55.6274C23.4164 55.6274 23.1812 55.8565 23.1594 56.16V56.1586ZM19.5943 56.4256C19.5943 56.4271 18.7333 66.2264 18.7333 66.2264L19.5943 75.6681C19.6205 75.9308 19.8132 76.106 20.0555 76.106C20.2977 76.106 20.4875 75.9163 20.5152 75.6536L21.49 66.2118L20.5167 56.411C20.4875 56.1483 20.2933 55.9586 20.0555 55.9586C19.8176 55.9586 19.6176 56.1483 19.5943 56.411V56.4256ZM26.7537 56.8736L25.9891 66.2132L26.7537 76.0345C26.777 76.3803 27.0398 76.6444 27.3711 76.6444C27.7024 76.6444 27.9635 76.3817 27.9883 76.0359L28.8566 66.2147L27.9883 56.8693C27.9621 56.5263 27.6994 56.2651 27.3711 56.2651C27.0427 56.2651 26.7756 56.5249 26.7537 56.8736ZM16.0598 57.9535C16.0598 57.955 15.155 66.2132 15.155 66.2132L16.0598 74.292C16.0861 74.508 16.2496 74.6627 16.4437 74.6627C16.6378 74.6627 16.7939 74.5109 16.8231 74.2935L17.8504 66.2132L16.8231 57.9535C16.7896 57.7346 16.6335 57.5828 16.4408 57.5828C16.2482 57.5828 16.0832 57.739 16.0569 57.9535H16.0598ZM12.6714 61.1056L12 66.2132L12.6714 71.2333C12.6977 71.4449 12.8493 71.5937 13.0405 71.5937C13.2317 71.5937 13.3762 71.4449 13.4053 71.2348L14.2022 66.2118L13.4053 61.1042C13.3762 60.894 13.2244 60.7466 13.0405 60.7466C12.8566 60.7466 12.6962 60.8955 12.6714 61.1056Z" fill="#1B1A19"/>
</svg>
