<svg width="115" height="115" viewBox="0 0 115 115" fill="none" xmlns="http://www.w3.org/2000/svg">
<path d="M57.5 0C25.7425 0 0 25.7425 0 57.5C0 89.2575 25.7425 115 57.5 115C89.2575 115 115 89.2575 115 57.5C115 25.7425 89.2644 0 57.5 0ZM83.8673 82.9335C82.8374 84.6226 80.6263 85.1582 78.9372 84.1214C65.4377 75.8747 48.4431 74.0071 28.4273 78.5801C26.4978 79.0196 24.5752 77.8111 24.1357 75.8816C23.6963 73.9521 24.8979 72.0295 26.8343 71.59C48.7384 66.5844 67.5251 68.7405 82.6863 78.0033C84.3755 79.0402 84.911 81.2443 83.8742 82.9335H83.8673ZM90.9055 67.271C89.6077 69.379 86.8474 70.0451 84.7394 68.7473C69.2829 59.2441 45.724 56.4906 27.4385 62.0456C25.0696 62.7597 22.5633 61.4276 21.8423 59.0587C21.1282 56.6898 22.4672 54.1904 24.8292 53.4694C45.7102 47.1316 71.6724 50.2009 89.4223 61.1118C91.5303 62.4095 92.1964 65.1699 90.8986 67.2779L90.9055 67.271ZM91.5097 50.9631C72.9771 39.9561 42.4006 38.9467 24.7056 44.3163C21.8629 45.1746 18.8623 43.5748 17.9971 40.732C17.1388 37.8893 18.7387 34.8886 21.5814 34.0235C41.8925 27.8574 75.6619 29.0521 96.9961 41.7139C99.5573 43.2314 100.395 46.5342 98.8775 49.0817C97.3669 51.636 94.0572 52.4806 91.5097 50.9631Z" fill="#91C3CE"/>
</svg>
