<svg width="1081" height="1080" viewBox="0 0 1081 1080" fill="none" xmlns="http://www.w3.org/2000/svg">
<rect x="1" width="1080" height="1080" rx="540" fill="black"/>
<circle cx="540" cy="540" r="535" stroke="#F3F3F3" stroke-width="10"/>
<path d="M682.024 447.412C724.852 478.136 777.319 496.213 833.985 496.213V386.782C823.261 386.784 812.564 385.662 802.072 383.431V469.569C745.41 469.569 692.951 451.492 650.112 420.77V644.087C650.112 755.802 559.871 846.358 448.56 846.358C407.027 846.358 368.424 833.757 336.356 812.146C372.956 849.702 423.998 873 480.466 873C591.784 873 682.029 782.444 682.029 670.724V447.412H682.024V447.412ZM721.392 337.009C699.505 313.012 685.134 282 682.024 247.714V233.639H651.782C659.395 277.216 685.359 314.445 721.392 337.009ZM406.761 726.42C394.532 710.328 387.924 690.644 387.953 670.405C387.953 619.31 429.229 577.883 480.152 577.883C489.642 577.88 499.075 579.339 508.119 582.219V470.342C497.55 468.888 486.883 468.271 476.22 468.497V555.577C467.169 552.697 457.731 551.234 448.239 551.243C397.316 551.243 356.043 592.666 356.043 643.767C356.043 679.899 376.674 711.181 406.761 726.42Z" fill="#FF004F"/>
<path d="M650.112 420.768C692.952 451.489 745.411 469.567 802.073 469.567V383.429C770.445 376.668 742.445 360.081 721.393 337.009C685.358 314.442 659.396 277.213 651.783 233.639H572.346V670.72C572.166 721.675 530.962 762.933 480.148 762.933C450.204 762.933 423.602 748.609 406.755 726.42C376.67 711.181 356.039 679.897 356.039 643.77C356.039 592.673 397.312 551.245 448.235 551.245C457.992 551.245 467.396 552.77 476.217 555.579V468.499C366.861 470.767 278.913 560.438 278.913 670.722C278.913 725.775 300.814 775.683 336.36 812.148C368.427 833.757 407.03 846.361 448.563 846.361C559.876 846.361 650.115 755.8 650.115 644.087V420.768H650.112Z" fill="white"/>
<path d="M802.071 383.429V360.138C773.55 360.181 745.589 352.166 721.391 337.007C742.812 360.543 771.019 376.771 802.071 383.429ZM651.781 233.64C651.055 229.475 650.497 225.283 650.11 221.075V207H540.429V644.085C540.254 695.033 499.051 736.292 448.233 736.292C433.314 736.292 419.227 732.738 406.753 726.422C423.6 748.609 450.202 762.931 480.146 762.931C530.955 762.931 572.167 721.677 572.344 670.723V233.64H651.781ZM476.219 468.5V443.705C467.054 442.448 457.814 441.817 448.563 441.821C337.241 441.819 247 532.38 247 644.085C247 714.119 282.466 775.839 336.36 812.144C300.814 775.681 278.913 725.771 278.913 670.72C278.913 560.439 366.859 470.767 476.219 468.5Z" fill="#00F2EA"/>
</svg>
