<svg width="115" height="115" viewBox="0 0 115 115" fill="none" xmlns="http://www.w3.org/2000/svg">
<rect width="115" height="115" rx="57.5" fill="#F37925"/>
<path d="M81.1545 36.664C80.6639 36.4107 80.1869 36.1316 79.7236 35.8297C78.3774 34.9377 77.1432 33.888 76.0484 32.7017C73.3076 29.5601 72.2839 26.3729 71.9069 24.1414H71.922C71.6071 22.2892 71.7373 21.0908 71.757 21.0908H59.2733V69.4488C59.2733 70.098 59.2733 70.7397 59.246 71.3738C59.246 71.4527 59.2385 71.5255 59.2339 71.6105C59.2339 71.6454 59.2339 71.6818 59.2264 71.7182V71.7455C58.9598 75.2694 56.9595 78.4277 53.8931 80.1738C52.3198 81.0703 50.539 81.5421 48.7279 81.539C42.9116 81.539 38.1976 76.7879 38.1976 70.9202C38.1976 65.0526 42.9116 60.3015 48.7279 60.3015C49.8288 60.3015 50.9236 60.4744 51.97 60.8157L51.9851 48.0823C45.56 47.251 39.0805 49.1502 34.1167 53.3188C31.9649 55.1923 30.1553 57.4268 28.7713 59.9222C28.2443 60.8324 26.2561 64.4898 26.0153 70.4257C25.8639 73.7949 26.8739 77.2855 27.3554 78.7281V78.7584C27.6583 79.6079 28.8319 82.5069 30.7444 84.9507C32.2859 86.9106 34.1091 88.6324 36.1519 90.0614V90.031L36.1821 90.0614C42.2256 94.1754 48.9263 93.9054 48.9263 93.9054C50.0862 93.8583 53.9718 93.9054 58.3844 91.8104C63.2785 89.488 66.0648 86.0277 66.0648 86.0277C67.8441 83.9601 69.2599 81.6043 70.2503 79.0603C71.3799 76.0855 71.757 72.5176 71.757 71.0917V45.4367C71.9084 45.5277 73.9254 46.8641 73.9254 46.8641C73.9254 46.8641 76.8313 48.73 81.365 49.9451C84.6177 50.8098 89 50.9918 89 50.9918V38.5769C87.4645 38.7438 84.3466 38.2584 81.1545 36.664Z" fill="#1B1A19"/>
</svg>
