<svg width="1080" height="1080" viewBox="0 0 1080 1080" fill="none" xmlns="http://www.w3.org/2000/svg">
<g clip-path="url(#clip0_619_19)">
<rect width="1080" height="1080" rx="500" fill="#1D9BF0"/>
<path d="M441.18 824.85C680.67 824.85 811.62 626.4 811.62 454.41C811.62 448.74 811.62 443.07 811.35 437.67C836.73 419.31 858.87 396.36 876.42 370.17C853.2 380.43 828.09 387.45 801.63 390.69C828.63 374.49 849.15 349.11 858.87 318.6C833.76 333.45 805.95 344.25 776.25 350.19C752.49 324.81 718.74 309.15 681.21 309.15C609.39 309.15 551.07 367.47 551.07 439.29C551.07 449.55 552.15 459.54 554.58 468.99C446.31 463.59 350.46 411.75 286.2 332.91C275.13 352.08 268.65 374.49 268.65 398.25C268.65 443.34 291.6 483.3 326.7 506.52C305.37 505.98 285.39 500.04 267.84 490.32C267.84 490.86 267.84 491.4 267.84 491.94C267.84 555.12 312.66 607.5 372.33 619.65C361.53 622.62 349.92 624.24 338.04 624.24C329.67 624.24 321.57 623.43 313.47 621.81C329.94 673.65 378 711.18 434.97 712.26C390.42 747.09 334.26 767.88 273.24 767.88C262.71 767.88 252.45 767.34 242.19 765.99C299.16 803.25 367.74 824.85 441.18 824.85Z" fill="white"/>
</g>
<defs>
<clipPath id="clip0_619_19">
<rect width="1080" height="1080" fill="white"/>
</clipPath>
</defs>
</svg>
