<svg width="115" height="115" viewBox="0 0 115 115" fill="none" xmlns="http://www.w3.org/2000/svg">
<rect width="115" height="115" rx="57.5" fill="#FAC670"/>
<path d="M94.2807 39.4053C93.3954 36.095 90.7914 33.4957 87.4811 32.6057C81.4867 31 57.4432 31 57.4432 31C57.4432 31 33.3997 31 27.4053 32.6057C24.095 33.491 21.4957 36.095 20.6057 39.4053C19 45.3997 19 57.9112 19 57.9112C19 57.9112 19 70.4226 20.6057 76.417C21.491 79.7274 24.095 82.3267 27.4053 83.2166C33.3997 84.8224 57.4432 84.8224 57.4432 84.8224C57.4432 84.8224 81.4867 84.8224 87.4811 83.2166C90.7914 82.3314 93.3907 79.7274 94.2807 76.417C95.8864 70.4226 95.8864 57.9112 95.8864 57.9112C95.8864 57.9112 95.8817 45.3997 94.2807 39.4053V39.4053Z" fill="#F37925"/>
<path d="M49.749 69.4429L69.724 57.9109L49.749 46.3789V69.4429V69.4429Z" fill="#FAC670"/>
</svg>
