<svg width="1080" height="1080" viewBox="0 0 1080 1080" fill="none" xmlns="http://www.w3.org/2000/svg">
<g clip-path="url(#clip0_618_119)">
<rect width="1080" height="1080" rx="500" fill="#FF0000"/>
<path d="M854.471 385.412C847.059 357.882 825.353 336.176 797.823 328.765C747.529 315 546.353 315 546.353 315C546.353 315 345.176 315 294.882 328.235C267.882 335.647 245.647 357.882 238.235 385.412C225 435.706 225 540 225 540C225 540 225 644.824 238.235 694.588C245.647 722.118 267.353 743.824 294.882 751.235C345.706 765 546.353 765 546.353 765C546.353 765 747.529 765 797.823 751.765C825.353 744.353 847.059 722.647 854.471 695.118C867.706 644.824 867.706 540.529 867.706 540.529C867.706 540.529 868.235 435.706 854.471 385.412Z" fill="white"/>
<path d="M482.29 636.353L649.584 540L482.29 443.647V636.353Z" fill="#FF0000"/>
</g>
<defs>
<clipPath id="clip0_618_119">
<rect width="1080" height="1080" fill="white"/>
</clipPath>
</defs>
</svg>
